<svg xmlns="http://www.w3.org/2000/svg" viewBox="0 0 960 288" font-family="Inter, 'Noto Sans', system-ui, -apple-system, sans-serif">
<!-- generated by make_figures.py — do not hand-edit -->
<rect x="24" y="16" width="12" height="12" rx="3" fill="#c3c2b7"/>
<text x="42" y="26" font-size="13" fill="#52514e">VLM prefix (shared)</text>
<text x="200" y="26" font-size="13" fill="#52514e">·  colored segment = action expert × NFE</text>
<line x1="24" y1="52" x2="24" y2="216" stroke="#e1e0d9" stroke-width="1"/>
<text x="24" y="236" font-size="13" fill="#898781" text-anchor="middle" style="font-variant-numeric: tabular-nums">0</text>
<line x1="161.667" y1="52" x2="161.667" y2="216" stroke="#e1e0d9" stroke-width="1"/>
<text x="161.667" y="236" font-size="13" fill="#898781" text-anchor="middle" style="font-variant-numeric: tabular-nums">50</text>
<line x1="299.333" y1="52" x2="299.333" y2="216" stroke="#e1e0d9" stroke-width="1"/>
<text x="299.333" y="236" font-size="13" fill="#898781" text-anchor="middle" style="font-variant-numeric: tabular-nums">100</text>
<line x1="437" y1="52" x2="437" y2="216" stroke="#e1e0d9" stroke-width="1"/>
<text x="437" y="236" font-size="13" fill="#898781" text-anchor="middle" style="font-variant-numeric: tabular-nums">150</text>
<line x1="574.667" y1="52" x2="574.667" y2="216" stroke="#e1e0d9" stroke-width="1"/>
<text x="574.667" y="236" font-size="13" fill="#898781" text-anchor="middle" style="font-variant-numeric: tabular-nums">200</text>
<line x1="712.333" y1="52" x2="712.333" y2="216" stroke="#e1e0d9" stroke-width="1"/>
<text x="712.333" y="236" font-size="13" fill="#898781" text-anchor="middle" style="font-variant-numeric: tabular-nums">250</text>
<line x1="850" y1="52" x2="850" y2="216" stroke="#e1e0d9" stroke-width="1"/>
<text x="850" y="236" font-size="13" fill="#898781" text-anchor="middle" style="font-variant-numeric: tabular-nums">300</text>
<line x1="24" y1="52" x2="24" y2="216" stroke="#c3c2b7" stroke-width="1"/>
<circle cx="29" cy="63" r="4.5" fill="#1baf7a"/>
<text x="39" y="67" font-size="13.5" fill="#0b0b0b" font-weight="600">SmolVLA-FM (10 steps)</text>
<rect x="24" y="72" width="80.0493" height="22" fill="#c3c2b7"/>
<path d="M106.049,72 L661.251,72 Q665.251,72 665.251,76 L665.251,90 Q665.251,94 661.251,94 L106.049,94 Z" fill="#1baf7a"/>
<text x="673.251" y="88" font-size="13.5" style="font-variant-numeric: tabular-nums"><tspan fill="#0b0b0b" font-weight="600">232.9 ms</tspan><tspan fill="#898781"> · ~4.3 Hz replan</tspan></text>
<circle cx="29" cy="119" r="4.5" fill="#1baf7a"/>
<text x="39" y="123" font-size="13.5" fill="#0b0b0b" font-weight="600">SmolVLA-FM (1 step)</text>
<rect x="24" y="128" width="80.0493" height="22" fill="#c3c2b7"/>
<path d="M106.049,128 L157.942,128 Q161.942,128 161.942,132 L161.942,146 Q161.942,150 157.942,150 L106.049,150 Z" fill="#1baf7a"/>
<text x="169.942" y="144" font-size="13.5" style="font-variant-numeric: tabular-nums"><tspan fill="#0b0b0b" font-weight="600">50.1 ms</tspan><tspan fill="#898781"> · ~20.0 Hz replan</tspan></text>
<circle cx="29" cy="175" r="4.5" fill="#2a78d6"/>
<text x="39" y="179" font-size="13.5" fill="#0b0b0b" font-weight="600">Drift-VLA (ours)</text>
<rect x="24" y="184" width="80.0493" height="22" fill="#c3c2b7"/>
<path d="M106.049,184 L159.319,184 Q163.319,184 163.319,188 L163.319,202 Q163.319,206 159.319,206 L106.049,206 Z" fill="#2a78d6"/>
<text x="171.319" y="200" font-size="13.5" style="font-variant-numeric: tabular-nums"><tspan fill="#0b0b0b" font-weight="600">50.6 ms</tspan><tspan fill="#898781"> · ~19.8 Hz replan</tspan></text>
<text x="437" y="262" font-size="13.5" fill="#898781" text-anchor="middle">latency (ms per action chunk)</text>
</svg>
