<svg xmlns="http://www.w3.org/2000/svg" viewBox="0 0 960 490" font-family="Inter, 'Noto Sans', system-ui, -apple-system, sans-serif">
<!-- generated by make_figures.py — do not hand-edit -->
<rect x="30" y="14" width="14" height="14" rx="3" fill="#c3c2b7"/>
<text x="51" y="26" font-size="15" fill="#52514e">VLM prefix (paid once, shared)</text>
<text x="306" y="26" font-size="15" fill="#52514e">·  colored = action expert × NFE</text>
<line x1="30" y1="44" x2="30" y2="432" stroke="#e1e0d9" stroke-width="1"/>
<text x="30" y="454" font-size="14.5" fill="#898781" text-anchor="middle" style="font-variant-numeric: tabular-nums">0</text>
<line x1="167.5" y1="44" x2="167.5" y2="432" stroke="#e1e0d9" stroke-width="1"/>
<text x="167.5" y="454" font-size="14.5" fill="#898781" text-anchor="middle" style="font-variant-numeric: tabular-nums">50</text>
<line x1="305" y1="44" x2="305" y2="432" stroke="#e1e0d9" stroke-width="1"/>
<text x="305" y="454" font-size="14.5" fill="#898781" text-anchor="middle" style="font-variant-numeric: tabular-nums">100</text>
<line x1="442.5" y1="44" x2="442.5" y2="432" stroke="#e1e0d9" stroke-width="1"/>
<text x="442.5" y="454" font-size="14.5" fill="#898781" text-anchor="middle" style="font-variant-numeric: tabular-nums">150</text>
<line x1="580" y1="44" x2="580" y2="432" stroke="#e1e0d9" stroke-width="1"/>
<text x="580" y="454" font-size="14.5" fill="#898781" text-anchor="middle" style="font-variant-numeric: tabular-nums">200</text>
<line x1="717.5" y1="44" x2="717.5" y2="432" stroke="#e1e0d9" stroke-width="1"/>
<text x="717.5" y="454" font-size="14.5" fill="#898781" text-anchor="middle" style="font-variant-numeric: tabular-nums">250</text>
<line x1="30" y1="44" x2="30" y2="432" stroke="#c3c2b7" stroke-width="1"/>
<line x1="121.575" y1="44" x2="121.575" y2="432" stroke="#52514e" stroke-width="1.2" stroke-dasharray="5 4"/>
<text x="127.575" y="57" font-size="13" fill="#52514e" font-weight="600">1 step @ 30 Hz (real robot)</text>
<line x1="305" y1="44" x2="305" y2="432" stroke="#52514e" stroke-width="1.2" stroke-dasharray="5 4"/>
<text x="311" y="75" font-size="13" fill="#52514e" font-weight="600">1 step @ 10 Hz (LIBERO)</text>
<text x="30" y="90" font-size="16.5" fill="#0b0b0b" font-weight="700">SmolVLA (450M)</text>
<circle cx="36" cy="101" r="5" fill="#1baf7a"/>
<text x="47" y="106" font-size="14.5" fill="#0b0b0b" font-weight="600">FM, 10 steps</text>
<rect x="30" y="110" width="82.975" height="26" fill="#c3c2b7"/>
<path d="M114.975,110 L638.15,110 Q642.15,110 642.15,114 L642.15,132 Q642.15,136 638.15,136 L114.975,136 Z" fill="#1baf7a"/>
<text x="651.15" y="130" font-size="15" style="font-variant-numeric: tabular-nums"><tspan fill="#0b0b0b" font-weight="700">223 ms</tspan></text>
<circle cx="36" cy="159" r="5" fill="#2a78d6"/>
<text x="47" y="164" font-size="14.5" fill="#0b0b0b" font-weight="600">Drift, 1 step (ours)</text>
<rect x="30" y="168" width="82.975" height="26" fill="#c3c2b7"/>
<path d="M114.975,168 L165.15,168 Q169.15,168 169.15,172 L169.15,190 Q169.15,194 165.15,194 L114.975,194 Z" fill="#2a78d6"/>
<text x="178.15" y="188" font-size="15" style="font-variant-numeric: tabular-nums"><tspan fill="#0b0b0b" font-weight="700">51 ms</tspan><tspan fill="#2a78d6" font-weight="700">  ·  4.4× faster</tspan></text>
<text x="30" y="254" font-size="16.5" fill="#0b0b0b" font-weight="700">Pi0.5 (3.3B)</text>
<circle cx="36" cy="265" r="5" fill="#1baf7a"/>
<text x="47" y="270" font-size="14.5" fill="#0b0b0b" font-weight="600">FM, 10 steps</text>
<rect x="30" y="274" width="181.425" height="26" fill="#c3c2b7"/>
<path d="M213.425,274 L740.45,274 Q744.45,274 744.45,278 L744.45,296 Q744.45,300 740.45,300 L213.425,300 Z" fill="#1baf7a"/>
<text x="753.45" y="294" font-size="15" style="font-variant-numeric: tabular-nums"><tspan fill="#0b0b0b" font-weight="700">260 ms</tspan></text>
<circle cx="36" cy="323" r="5" fill="#2a78d6"/>
<text x="47" y="328" font-size="14.5" fill="#0b0b0b" font-weight="600">Drift, 1 step (ours)</text>
<rect x="30" y="332" width="181.425" height="26" fill="#c3c2b7"/>
<path d="M213.425,332 L261.4,332 Q265.4,332 265.4,336 L265.4,354 Q265.4,358 261.4,358 L213.425,358 Z" fill="#2a78d6"/>
<text x="274.4" y="352" font-size="15" style="font-variant-numeric: tabular-nums"><tspan fill="#0b0b0b" font-weight="700">86 ms</tspan><tspan fill="#2a78d6" font-weight="700">  ·  3× faster</tspan></text>
<text x="415" y="480" font-size="15" fill="#898781" text-anchor="middle">time to decode one action chunk (ms, A100)</text>
</svg>
