<svg xmlns="http://www.w3.org/2000/svg" viewBox="0 0 960 400" font-family="Inter, 'Noto Sans', system-ui, -apple-system, sans-serif">
<!-- generated by make_figures.py — do not hand-edit -->
<rect x="40" y="18" width="12" height="12" rx="3" fill="#1baf7a"/>
<text x="58" y="28" font-size="13" fill="#52514e">FM (10-NFE, native)</text>
<rect x="216" y="18" width="12" height="12" rx="3" fill="#2a78d6"/>
<text x="234" y="28" font-size="13" fill="#52514e">Drift (1-NFE, ours)</text>
<text x="944" y="28" font-size="12" fill="#898781" text-anchor="end">LIBERO, 50 ep/task, n=3 eval seeds, native replan cadence</text>
<text x="40" y="62" font-size="15.5" fill="#0b0b0b" font-weight="700">SmolVLA (450M)</text>
<text x="452" y="62" font-size="12.5" fill="#2a78d6" text-anchor="end" font-weight="600">Drift decode 4.4× faster</text>
<line x1="40" y1="322" x2="452" y2="322" stroke="#e1e0d9" stroke-width="1"/>
<text x="32" y="326" font-size="12" fill="#898781" text-anchor="end" style="font-variant-numeric: tabular-nums">50</text>
<line x1="40" y1="276" x2="452" y2="276" stroke="#e1e0d9" stroke-width="1"/>
<text x="32" y="280" font-size="12" fill="#898781" text-anchor="end" style="font-variant-numeric: tabular-nums">60</text>
<line x1="40" y1="230" x2="452" y2="230" stroke="#e1e0d9" stroke-width="1"/>
<text x="32" y="234" font-size="12" fill="#898781" text-anchor="end" style="font-variant-numeric: tabular-nums">70</text>
<line x1="40" y1="184" x2="452" y2="184" stroke="#e1e0d9" stroke-width="1"/>
<text x="32" y="188" font-size="12" fill="#898781" text-anchor="end" style="font-variant-numeric: tabular-nums">80</text>
<line x1="40" y1="138" x2="452" y2="138" stroke="#e1e0d9" stroke-width="1"/>
<text x="32" y="142" font-size="12" fill="#898781" text-anchor="end" style="font-variant-numeric: tabular-nums">90</text>
<line x1="40" y1="92" x2="452" y2="92" stroke="#e1e0d9" stroke-width="1"/>
<text x="32" y="96" font-size="12" fill="#898781" text-anchor="end" style="font-variant-numeric: tabular-nums">100</text>
<line x1="40" y1="322" x2="452" y2="322" stroke="#c3c2b7" stroke-width="1"/>
<path d="M48.2,322 L48.2,122.14 Q48.2,119.14 51.2,119.14 L75.2,119.14 Q78.2,119.14 78.2,122.14 L78.2,322 Z" fill="#1baf7a"/>
<line x1="63.2" y1="118.22" x2="63.2" y2="120.06" stroke="#52514e" stroke-width="1.3"/>
<text x="63.2" y="112.22" font-size="11.5" fill="#52514e" text-anchor="middle" font-weight="600" style="font-variant-numeric: tabular-nums">94.1</text>
<path d="M84.2,322 L84.2,120.76 Q84.2,117.76 87.2,117.76 L111.2,117.76 Q114.2,117.76 114.2,120.76 L114.2,322 Z" fill="#2a78d6"/>
<line x1="99.2" y1="113.16" x2="99.2" y2="122.36" stroke="#52514e" stroke-width="1.3"/>
<text x="99.2" y="107.16" font-size="11.5" fill="#52514e" text-anchor="middle" font-weight="600" style="font-variant-numeric: tabular-nums">94.4</text>
<text x="81.2" y="342" font-size="13" fill="#52514e" text-anchor="middle">Spatial</text>
<path d="M130.6,322 L130.6,169.06 Q130.6,166.06 133.6,166.06 L157.6,166.06 Q160.6,166.06 160.6,169.06 L160.6,322 Z" fill="#1baf7a"/>
<line x1="145.6" y1="161" x2="145.6" y2="171.12" stroke="#52514e" stroke-width="1.3"/>
<text x="145.6" y="155" font-size="11.5" fill="#52514e" text-anchor="middle" font-weight="600" style="font-variant-numeric: tabular-nums">83.9</text>
<path d="M166.6,322 L166.6,129.5 Q166.6,126.5 169.6,126.5 L193.6,126.5 Q196.6,126.5 196.6,129.5 L196.6,322 Z" fill="#2a78d6"/>
<line x1="181.6" y1="123.28" x2="181.6" y2="129.72" stroke="#52514e" stroke-width="1.3"/>
<text x="181.6" y="117.28" font-size="11.5" fill="#52514e" text-anchor="middle" font-weight="600" style="font-variant-numeric: tabular-nums">92.5</text>
<text x="163.6" y="342" font-size="13" fill="#52514e" text-anchor="middle">Object</text>
<path d="M213,322 L213,152.5 Q213,149.5 216,149.5 L240,149.5 Q243,149.5 243,152.5 L243,322 Z" fill="#1baf7a"/>
<line x1="228" y1="146.74" x2="228" y2="152.26" stroke="#52514e" stroke-width="1.3"/>
<text x="228" y="140.74" font-size="11.5" fill="#52514e" text-anchor="middle" font-weight="600" style="font-variant-numeric: tabular-nums">87.5</text>
<path d="M249,322 L249,144.68 Q249,141.68 252,141.68 L276,141.68 Q279,141.68 279,144.68 L279,322 Z" fill="#2a78d6"/>
<line x1="264" y1="138" x2="264" y2="145.36" stroke="#52514e" stroke-width="1.3"/>
<text x="264" y="132" font-size="11.5" fill="#52514e" text-anchor="middle" font-weight="600" style="font-variant-numeric: tabular-nums">89.2</text>
<text x="246" y="342" font-size="13" fill="#52514e" text-anchor="middle">Goal</text>
<path d="M295.4,322 L295.4,214.6 Q295.4,211.6 298.4,211.6 L322.4,211.6 Q325.4,211.6 325.4,214.6 L325.4,322 Z" fill="#1baf7a"/>
<line x1="310.4" y1="204.24" x2="310.4" y2="218.96" stroke="#52514e" stroke-width="1.3"/>
<text x="310.4" y="198.24" font-size="11.5" fill="#52514e" text-anchor="middle" font-weight="600" style="font-variant-numeric: tabular-nums">74.0</text>
<path d="M331.4,322 L331.4,213.22 Q331.4,210.22 334.4,210.22 L358.4,210.22 Q361.4,210.22 361.4,213.22 L361.4,322 Z" fill="#2a78d6"/>
<line x1="346.4" y1="207" x2="346.4" y2="213.44" stroke="#52514e" stroke-width="1.3"/>
<text x="346.4" y="201" font-size="11.5" fill="#52514e" text-anchor="middle" font-weight="600" style="font-variant-numeric: tabular-nums">74.3</text>
<text x="328.4" y="342" font-size="13" fill="#52514e" text-anchor="middle">Long</text>
<line x1="369.6" y1="86" x2="369.6" y2="322" stroke="#c3c2b7" stroke-width="1" stroke-dasharray="3 3"/>
<path d="M377.8,322 L377.8,164.46 Q377.8,161.46 380.8,161.46 L404.8,161.46 Q407.8,161.46 407.8,164.46 L407.8,322 Z" fill="#1baf7a"/>
<line x1="392.8" y1="159.16" x2="392.8" y2="163.76" stroke="#52514e" stroke-width="1.3"/>
<text x="392.8" y="153.16" font-size="11.5" fill="#0b0b0b" text-anchor="middle" font-weight="700" style="font-variant-numeric: tabular-nums">84.9</text>
<path d="M413.8,322 L413.8,152.04 Q413.8,149.04 416.8,149.04 L440.8,149.04 Q443.8,149.04 443.8,152.04 L443.8,322 Z" fill="#2a78d6"/>
<line x1="428.8" y1="148.12" x2="428.8" y2="149.96" stroke="#52514e" stroke-width="1.3"/>
<text x="428.8" y="142.12" font-size="11.5" fill="#0b0b0b" text-anchor="middle" font-weight="700" style="font-variant-numeric: tabular-nums">87.6</text>
<text x="410.8" y="342" font-size="13" fill="#0b0b0b" text-anchor="middle" font-weight="700">Avg</text>
<text x="532" y="62" font-size="15.5" fill="#0b0b0b" font-weight="700">Pi0.5 (3.3B)</text>
<text x="944" y="62" font-size="12.5" fill="#2a78d6" text-anchor="end" font-weight="600">Drift decode 3× faster</text>
<line x1="532" y1="322" x2="944" y2="322" stroke="#e1e0d9" stroke-width="1"/>
<text x="524" y="326" font-size="12" fill="#898781" text-anchor="end" style="font-variant-numeric: tabular-nums">50</text>
<line x1="532" y1="276" x2="944" y2="276" stroke="#e1e0d9" stroke-width="1"/>
<text x="524" y="280" font-size="12" fill="#898781" text-anchor="end" style="font-variant-numeric: tabular-nums">60</text>
<line x1="532" y1="230" x2="944" y2="230" stroke="#e1e0d9" stroke-width="1"/>
<text x="524" y="234" font-size="12" fill="#898781" text-anchor="end" style="font-variant-numeric: tabular-nums">70</text>
<line x1="532" y1="184" x2="944" y2="184" stroke="#e1e0d9" stroke-width="1"/>
<text x="524" y="188" font-size="12" fill="#898781" text-anchor="end" style="font-variant-numeric: tabular-nums">80</text>
<line x1="532" y1="138" x2="944" y2="138" stroke="#e1e0d9" stroke-width="1"/>
<text x="524" y="142" font-size="12" fill="#898781" text-anchor="end" style="font-variant-numeric: tabular-nums">90</text>
<line x1="532" y1="92" x2="944" y2="92" stroke="#e1e0d9" stroke-width="1"/>
<text x="524" y="96" font-size="12" fill="#898781" text-anchor="end" style="font-variant-numeric: tabular-nums">100</text>
<line x1="532" y1="322" x2="944" y2="322" stroke="#c3c2b7" stroke-width="1"/>
<path d="M540.2,322 L540.2,112.48 Q540.2,109.48 543.2,109.48 L567.2,109.48 Q570.2,109.48 570.2,112.48 L570.2,322 Z" fill="#1baf7a"/>
<line x1="555.2" y1="100.28" x2="555.2" y2="118.68" stroke="#52514e" stroke-width="1.3"/>
<text x="555.2" y="94.28" font-size="11.5" fill="#52514e" text-anchor="middle" font-weight="600" style="font-variant-numeric: tabular-nums">96.2</text>
<path d="M576.2,322 L576.2,102.82 Q576.2,99.82 579.2,99.82 L603.2,99.82 Q606.2,99.82 606.2,102.82 L606.2,322 Z" fill="#2a78d6"/>
<line x1="591.2" y1="98.44" x2="591.2" y2="101.2" stroke="#52514e" stroke-width="1.3"/>
<text x="591.2" y="92.44" font-size="11.5" fill="#52514e" text-anchor="middle" font-weight="600" style="font-variant-numeric: tabular-nums">98.3</text>
<text x="573.2" y="342" font-size="13" fill="#52514e" text-anchor="middle">Spatial</text>
<path d="M622.6,322 L622.6,109.72 Q622.6,106.72 625.6,106.72 L649.6,106.72 Q652.6,106.72 652.6,109.72 L652.6,322 Z" fill="#1baf7a"/>
<line x1="637.6" y1="104.88" x2="637.6" y2="108.56" stroke="#52514e" stroke-width="1.3"/>
<text x="637.6" y="98.88" font-size="11.5" fill="#52514e" text-anchor="middle" font-weight="600" style="font-variant-numeric: tabular-nums">96.8</text>
<path d="M658.6,322 L658.6,103.74 Q658.6,100.74 661.6,100.74 L685.6,100.74 Q688.6,100.74 688.6,103.74 L688.6,322 Z" fill="#2a78d6"/>
<line x1="673.6" y1="96.6" x2="673.6" y2="104.88" stroke="#52514e" stroke-width="1.3"/>
<text x="673.6" y="90.6" font-size="11.5" fill="#52514e" text-anchor="middle" font-weight="600" style="font-variant-numeric: tabular-nums">98.1</text>
<text x="655.6" y="342" font-size="13" fill="#52514e" text-anchor="middle">Object</text>
<path d="M705,322 L705,129.04 Q705,126.04 708,126.04 L732,126.04 Q735,126.04 735,129.04 L735,322 Z" fill="#1baf7a"/>
<line x1="720" y1="124.66" x2="720" y2="127.42" stroke="#52514e" stroke-width="1.3"/>
<text x="720" y="118.66" font-size="11.5" fill="#52514e" text-anchor="middle" font-weight="600" style="font-variant-numeric: tabular-nums">92.6</text>
<path d="M741,322 L741,115.24 Q741,112.24 744,112.24 L768,112.24 Q771,112.24 771,115.24 L771,322 Z" fill="#2a78d6"/>
<line x1="756" y1="108.56" x2="756" y2="115.92" stroke="#52514e" stroke-width="1.3"/>
<text x="756" y="102.56" font-size="11.5" fill="#52514e" text-anchor="middle" font-weight="600" style="font-variant-numeric: tabular-nums">95.6</text>
<text x="738" y="342" font-size="13" fill="#52514e" text-anchor="middle">Goal</text>
<path d="M787.4,322 L787.4,156.18 Q787.4,153.18 790.4,153.18 L814.4,153.18 Q817.4,153.18 817.4,156.18 L817.4,322 Z" fill="#1baf7a"/>
<line x1="802.4" y1="146.74" x2="802.4" y2="159.62" stroke="#52514e" stroke-width="1.3"/>
<text x="802.4" y="140.74" font-size="11.5" fill="#52514e" text-anchor="middle" font-weight="600" style="font-variant-numeric: tabular-nums">86.7</text>
<path d="M823.4,322 L823.4,126.74 Q823.4,123.74 826.4,123.74 L850.4,123.74 Q853.4,123.74 853.4,126.74 L853.4,322 Z" fill="#2a78d6"/>
<line x1="838.4" y1="120.98" x2="838.4" y2="126.5" stroke="#52514e" stroke-width="1.3"/>
<text x="838.4" y="114.98" font-size="11.5" fill="#52514e" text-anchor="middle" font-weight="600" style="font-variant-numeric: tabular-nums">93.1</text>
<text x="820.4" y="342" font-size="13" fill="#52514e" text-anchor="middle">Long</text>
<line x1="861.6" y1="86" x2="861.6" y2="322" stroke="#c3c2b7" stroke-width="1" stroke-dasharray="3 3"/>
<path d="M869.8,322 L869.8,126.74 Q869.8,123.74 872.8,123.74 L896.8,123.74 Q899.8,123.74 899.8,126.74 L899.8,322 Z" fill="#1baf7a"/>
<line x1="884.8" y1="121.44" x2="884.8" y2="126.04" stroke="#52514e" stroke-width="1.3"/>
<text x="884.8" y="115.44" font-size="11.5" fill="#0b0b0b" text-anchor="middle" font-weight="700" style="font-variant-numeric: tabular-nums">93.1</text>
<path d="M905.8,322 L905.8,112.02 Q905.8,109.02 908.8,109.02 L932.8,109.02 Q935.8,109.02 935.8,112.02 L935.8,322 Z" fill="#2a78d6"/>
<line x1="920.8" y1="108.56" x2="920.8" y2="109.48" stroke="#52514e" stroke-width="1.3"/>
<text x="920.8" y="102.56" font-size="11.5" fill="#0b0b0b" text-anchor="middle" font-weight="700" style="font-variant-numeric: tabular-nums">96.3</text>
<text x="902.8" y="342" font-size="13" fill="#0b0b0b" text-anchor="middle" font-weight="700">Avg</text>
<text x="480" y="384" font-size="13" fill="#898781" text-anchor="middle">success rate (%) — FM at its native 10-step decode, Drift at one step</text>
</svg>
